<?xml version="1.0" standalone="no"?>
<!DOCTYPE svg PUBLIC "-//W3C//DTD SVG 20010904//EN"
 "http://www.w3.org/TR/2001/REC-SVG-20010904/DTD/svg10.dtd">
<svg version="1.0" xmlns="http://www.w3.org/2000/svg"
 width="901.000000pt" height="901.000000pt" viewBox="0 0 901.000000 901.000000"
 preserveAspectRatio="xMidYMid meet">

<g transform="translate(0.000000,901.000000) scale(0.100000,-0.100000)"
fill="#000000" stroke="none">
<path d="M3160 6390 c-103 -19 -213 -102 -276 -210 -41 -70 -62 -206 -45 -287
21 -98 24 -109 52 -151 16 -24 29 -46 29 -51 0 -18 59 -61 180 -131 23 -13
117 -31 165 -31 50 0 144 20 186 38 72 33 170 131 210 210 29 60 34 80 37 166
3 66 1 102 -8 112 -6 8 -9 19 -5 25 4 6 2 16 -3 23 -5 7 -12 25 -16 40 -7 29
-18 46 -48 75 -10 9 -18 24 -18 33 0 13 -91 85 -125 98 -5 2 -17 9 -25 16 -34
28 -194 42 -290 25z"/>
<path d="M4366 5443 c-27 -7 -64 -19 -81 -27 -37 -18 -122 -97 -150 -141 -36
-57 -95 -176 -95 -194 0 -9 -6 -23 -12 -29 -19 -19 -18 -325 1 -372 24 -60 31
-74 54 -110 12 -19 32 -51 44 -70 28 -43 185 -180 207 -180 2 0 28 -16 57 -35
30 -19 59 -35 65 -35 6 0 17 -7 24 -15 7 -8 20 -15 29 -15 9 0 27 -6 41 -13
14 -7 59 -23 100 -36 41 -13 89 -27 105 -33 17 -6 71 -19 120 -31 113 -25 417
-36 480 -16 22 7 46 14 54 15 54 10 112 27 117 35 3 5 11 9 19 9 24 0 98 56
175 133 60 60 80 87 99 138 13 35 27 73 32 84 16 33 30 125 36 220 6 99 -7
173 -43 245 -26 53 -90 130 -108 130 -7 0 -26 11 -42 25 -35 31 -119 75 -143
75 -9 0 -21 4 -27 10 -9 9 -91 40 -159 60 -16 5 -52 16 -80 25 -114 37 -142
44 -178 51 -20 3 -40 10 -43 15 -3 5 -16 9 -30 9 -14 0 -46 6 -72 14 -195 57
-489 86 -596 59z"/>
<path d="M6860 5385 c-14 -8 -34 -14 -46 -15 -44 0 -204 -145 -204 -185 0 -5
-6 -16 -13 -24 -43 -51 -61 -226 -32 -306 8 -22 15 -47 15 -55 0 -41 129 -193
175 -206 11 -3 40 -16 65 -27 39 -19 63 -22 170 -22 113 0 130 2 175 25 92 45
144 85 170 131 52 93 68 130 81 195 15 73 15 80 -6 166 -12 49 -31 106 -43
126 -40 69 -118 137 -200 176 -73 34 -83 36 -180 36 -69 -1 -110 -5 -127 -15z"/>
<path d="M4660 4032 c-60 -31 -108 -62 -113 -76 -7 -17 -115 -68 -192 -91 -47
-14 -91 -17 -200 -16 -77 1 -158 7 -180 12 -88 24 -123 23 -164 -6 -70 -48
-76 -150 -13 -217 14 -16 36 -28 48 -28 13 0 25 -4 28 -9 9 -14 195 -43 286
-44 81 -1 204 15 255 34 28 11 60 19 73 19 13 0 52 16 87 35 l64 34 31 -36
c17 -19 37 -47 43 -61 12 -27 119 -134 140 -141 7 -2 26 -16 42 -30 43 -39
159 -111 178 -111 9 0 18 -4 22 -10 3 -5 20 -14 38 -19 18 -6 59 -19 91 -30
33 -12 82 -21 110 -21 45 0 56 4 89 35 35 33 37 38 37 100 0 63 -2 67 -36 98
-22 19 -60 38 -93 47 -65 18 -176 70 -241 113 -54 36 -170 154 -170 173 0 7
-6 17 -12 21 -20 12 -58 89 -58 115 0 13 -8 35 -18 50 -43 66 -112 90 -172 60z"/>
</g>
</svg>
